<?xml version="1.0" standalone="no"?>
<!DOCTYPE svg PUBLIC "-//W3C//DTD SVG 20010904//EN"
 "http://www.w3.org/TR/2001/REC-SVG-20010904/DTD/svg10.dtd">
<svg version="1.0" xmlns="http://www.w3.org/2000/svg"
 width="800.000000pt" height="800.000000pt" viewBox="0 0 800.000000 800.000000"
 preserveAspectRatio="xMidYMid meet">

<g transform="translate(0.000000,800.000000) scale(0.100000,-0.100000)"
fill="#000000" stroke="none">
<path d="M2045 7510 c-778 -60 -1474 -532 -1820 -1234 -375 -762 -275 -1671
258 -2351 107 -137 3359 -3389 3417 -3418 60 -29 139 -28 198 2 30 15 545 522
1655 1629 886 884 1641 1639 1676 1677 410 445 618 1072 561 1690 -50 537
-283 1017 -677 1395 -664 638 -1665 792 -2499 384 -237 -115 -400 -236 -667
-494 l-147 -142 -178 173 c-287 281 -489 418 -802 542 -287 115 -663 172 -975
147z"/>
</g>
</svg>
